Coordinates
version=1
nRows=7
nColumns=63
inDegrees=yes

Units are S.I. units (second, meters, Newtons, ...)
If the header above contains a line with 'inDegrees', this indicates whether rotational values are in degrees (yes) or radians (no).

endheader
time	pelvis_tilt	pelvis_list	pelvis_rotation	pelvis_tx	pelvis_ty	pelvis_tz	hip_flexion_r	hip_adduction_r	hip_rotation_r	knee_angle_r	knee_angle_r_beta	ankle_angle_r	subtalar_angle_r	mtp_angle_r	hip_flexion_l	hip_adduction_l	hip_rotation_l	knee_angle_l	knee_angle_l_beta	ankle_angle_l	subtalar_angle_l	mtp_angle_l	L5_S1_Flex_Ext	L5_S1_Lat_Bending	L5_S1_axial_rotation	L4_L5_Flex_Ext	L4_L5_Lat_Bending	L4_L5_axial_rotation	L3_L4_Flex_Ext	L3_L4_Lat_Bending	L3_L4_axial_rotation	L2_L3_Flex_Ext	L2_L3_Lat_Bending	L2_L3_axial_rotation	L1_L2_Flex_Ext	L1_L2_Lat_Bending	L1_L2_axial_rotation	L1_T12_Flex_Ext	L1_T12_Lat_Bending	L1_T12_axial_rotation	Abs_r3	Abs_r2	Abs_r1	Abs_t1	Abs_t2	neck_flexion	neck_bending	neck_rotation	arm_flex_r	arm_add_r	arm_rot_r	elbow_flex_r	pro_sup_r	wrist_flex_r	wrist_dev_r	arm_flex_l	arm_add_l	arm_rot_l	elbow_flex_l	pro_sup_l	wrist_flex_l	wrist_dev_l
      0.01666667	     -0.37118309	      4.07891167	    -74.22478634	      0.03453299	      0.95240847	     -1.35873394	      0.47973213	      5.63334603	    -36.06894751	     20.22092186	      0.35292166	     19.38493920	    -10.87258308	      0.00000000	     29.94763685	     16.20405257	     29.37389575	     16.54159011	      0.28870521	    -18.32274681	    -18.65620491	      0.00000000	     -0.02192814	      0.42997965	     -1.71117175	     -0.04072275	      0.57187293	     -1.81811999	     -0.03602574	      1.04545252	     -1.81811999	     -0.02506167	      1.04545252	     -1.49727529	     -0.02036247	      0.87681450	     -1.39032705	     -0.01252974	      0.66603848	     -1.28337882	     -0.15663053	      4.86401578	     -9.51702395	      0.00000000	      0.00000000	    -10.55913217	      4.81528286	    -13.49372672	    -20.21355149	    -20.98477251	    -28.84280635	     49.64535641	     89.99559364	      0.00000000	      0.00000000	     -6.97043375	    -23.67701267	     19.35573796	     24.22873484	     89.99559364	      0.00000000	      0.00000000
      0.03333333	     -2.15755308	      3.59546511	    -76.16711155	      0.02880955	      0.94967046	     -1.34483864	     -1.16619822	      8.48835454	    -33.90068645	     18.21157993	      0.31785203	     19.38465267	     -8.43090793	      0.00000000	     29.68003748	     12.47919050	     21.30103148	     20.07837459	      0.35043375	    -10.56472782	    -16.83922921	      0.00000000	     -0.02084991	      0.49585376	     -1.50236279	     -0.03872037	      0.65948550	     -1.59626046	     -0.03425432	      1.20561884	     -1.59626046	     -0.02382936	      1.20561884	     -1.31456744	     -0.01936123	      1.01114499	     -1.22066976	     -0.01191364	      0.76807748	     -1.12677209	     -0.14892884	      5.60919693	     -8.35569110	      0.00000000	      0.00000000	     -9.23023722	      5.45832716	    -11.74749136	    -22.85809574	    -21.13858576	    -29.66285615	     53.90255802	     89.99559364	      0.00000000	      0.00000000	     -8.48795765	    -24.33752176	     18.56939766	     25.78427528	     89.99559364	      0.00000000	      0.00000000
      0.05000000	     -0.67152717	      1.90080022	    -79.92111593	      0.01948011	      0.95495433	     -1.34199324	     -2.92110121	      7.58907036	    -28.88234369	     19.40764334	      0.33872728	     16.96584892	    -12.25943439	      0.00000000	     29.38767833	     12.14764311	     19.24491545	     19.33221750	      0.33741085	    -21.84580048	    -14.55776257	      0.00000000	     -0.03044255	      0.23155062	     -2.51467712	     -0.05653485	      0.30796233	     -2.67184444	     -0.05001406	      0.56299219	     -2.67184444	     -0.03479279	      0.56299219	     -2.20034248	     -0.02826895	      0.47217803	     -2.04317516	     -0.01739487	      0.35867192	     -1.88600784	     -0.21744807	      2.61934697	    -13.98587976	      0.00000000	      0.00000000	    -16.86052315	      5.89759484	      4.91563576	    -10.50804679	    -22.64166720	    -18.56201673	     46.60735281	     89.99559364	      0.00000000	      0.00000000	    -11.69432526	    -24.11597494	      4.40785055	     23.65816038	     89.99559364	      0.00000000	      0.00000000
      0.06666667	     -3.67267291	      0.65831353	    -81.74467671	      0.01880621	      0.95149421	     -1.32822953	     -4.70040486	     10.82542262	    -26.21019311	     19.80886140	      0.34572985	     16.28353058	    -13.46097855	      0.00000000	     30.89396706	      6.10512394	      5.62572661	     29.11885626	      0.50821992	     -6.05541779	      7.48574953	      0.00000000	     -0.03468485	      0.62882974	     -2.54217869	     -0.06441324	      0.83634356	     -2.70106486	     -0.05698374	      1.52893664	     -2.70106486	     -0.03964132	      1.52893664	     -2.22440636	     -0.03220835	      1.28230962	     -2.06552019	     -0.01981892	      0.97405727	     -1.90663402	     -0.24775043	      7.11344784	    -14.13883524	      0.00000000	      0.00000000	    -16.14452588	     -0.15468392	      5.78805622	    -18.25213963	    -30.37915257	    -11.40119516	     63.29775878	     89.99559364	      0.00000000	      0.00000000	     -9.99507663	    -24.32857938	     22.67052879	     20.26177940	     89.99559364	      0.00000000	      0.00000000
      0.08333333	     -1.19031109	      1.19955176	    -81.10308647	      0.01523638	      0.95550278	     -1.32131838	     -5.58868603	      8.53118065	    -26.45208546	     18.45870288	      0.32216514	     18.48691604	    -11.54410609	      0.00000000	     31.04462606	      8.04106307	      2.22113047	     27.04489805	      0.47202252	    -14.17935786	      6.05701218	      0.00000000	     -0.03058955	      0.04624272	     -2.39054331	     -0.05680785	      0.06150281	     -2.53995227	     -0.05025557	      0.11243454	     -2.53995227	     -0.03496079	      0.11243454	     -2.09172540	     -0.02840545	      0.09429815	     -1.94231644	     -0.01747887	      0.07162997	     -1.79290748	     -0.21849808	      0.52310685	    -13.29548474	      0.00000000	      0.00000000	    -17.12456168	      3.76727807	     -0.89384432	    -10.31629407	    -24.63333180	    -15.27855106	     50.05245496	     89.99559364	      0.00000000	      0.00000000	     -9.43433785	    -27.11438390	     19.54724842	     21.15936289	     89.99559364	      0.00000000	      0.00000000
      0.10000000	     -2.96715459	      2.48431357	    -80.04878247	      0.01285883	      0.95474191	     -1.30737470	     -4.59572567	     10.33135671	    -27.77531146	     18.47505772	      0.32245059	     16.95343773	    -10.57254989	      0.00000000	     31.43440737	      6.47656909	      1.78097026	     28.93156212	      0.50495102	     -4.46423474	      2.59601137	      0.00000000	     -0.02095882	      0.11762974	      0.32659804	     -0.03892263	      0.15644755	      0.34701042	     -0.03443325	      0.28600494	      0.34701042	     -0.02395384	      0.28600494	      0.28577329	     -0.01946236	      0.23987056	      0.26536091	     -0.01197587	      0.18220846	      0.24494853	     -0.14970677	      1.33065111	      1.81644035	      0.00000000	      0.00000000	    -15.25416577	      3.27705437	    -17.54629447	    -26.76164979	    -21.57035676	    -32.90761485	     58.26723444	     89.99559364	      0.00000000	      0.00000000	      5.84444244	    -26.90370952	     39.02878909	     17.86198615	     89.99559364	      0.00000000	      0.00000000
      0.11666667	     -3.36459001	      2.15268929	    -80.12463031	      0.00988554	      0.95664846	     -1.29742466	     -5.70445000	     11.23350435	    -28.39659809	     17.45126709	      0.30458207	     16.51775193	    -10.19642003	      0.00000000	     30.97290140	      5.66374007	      1.50828076	     27.75001700	      0.48432916	     -7.63114455	      6.28016824	      0.00000000	     -0.02693380	      0.05887374	      0.05431778	     -0.05001876	      0.07830208	      0.05771264	     -0.04424954	      0.14314562	      0.05771264	     -0.03078264	      0.14314562	      0.04752805	     -0.02501073	      0.12005534	      0.04413319	     -0.01538997	      0.09119543	      0.04073833	     -0.19238543	      0.66599156	      0.30209918	      0.00000000	      0.00000000	    -17.08067610	      1.95588653	    -15.23877664	    -26.44890998	    -22.17193038	    -32.53375153	     60.11840760	     89.99559364	      0.00000000	      0.00000000	      4.95314839	    -26.95725960	     39.17594312	     17.81984993	     89.99559364	      0.00000000	      0.00000000
